<?xml version="1.0" encoding="UTF-8"?>
<svg width="24px" height="24px" viewBox="0 0 24 24" version="1.1" xmlns="http://www.w3.org/2000/svg" xmlns:xlink="http://www.w3.org/1999/xlink">
    <title>logo/small@1x</title>
    <g id="logo/small" stroke="none" stroke-width="1" fill="none" fill-rule="evenodd">
        <g id="logo/blue" fill-rule="nonzero">
            <g id="logo/header/290_color">
                <path d="M10.8005674,0 L5.32004968e-06,0 L5.32004968e-06,10.800562 L5.32004968e-06,10.800562 C5.96499103,10.800562 10.8005674,5.96498571 10.8005674,0 Z" id="路径" fill="#42BEF4"></path>
                <path d="M13.199438,23.9999947 L24,23.9999947 L24,13.1994326 L24,13.1994326 C18.0350143,13.1994326 13.199438,18.035009 13.199438,23.9999947 Z" id="路径" fill="#4285F4"></path>
                <path d="M11.9943583,0 L11.9943583,11.9943529 C18.6186565,11.9943529 23.9887112,6.62429821 23.9887112,0 L11.9943583,0 Z" id="路径" fill="#4285F4"></path>
                <path d="M0,23.9999947 L11.9943583,23.9999947 L11.9943583,11.9943529 L11.9943583,11.9943529 C8.8113012,11.9943529 5.75877857,13.2595882 3.50907627,15.5114078 C1.25937397,17.7632275 -0.00299049836,20.816939 0,23.9999947 Z" id="路径" fill="#4285F4"></path>
            </g>
        </g>
    </g>
</svg>